<?xml version="1.0" encoding="UTF-8" standalone="no"?>
<!-- Created for MapSVG plugin: http://mapsvg.com -->

<svg
   mapsvg:geoViewBox="-169.110266 83.600842 190.486279 -58.508473"
   width="97.089836"
   height="97.089851"
   version="1.1"
   id="svg1"
   xmlns="http://www.w3.org/2000/svg"
   xmlns:svg="http://www.w3.org/2000/svg"
   xmlns:mapsvg="http://mapsvg.com">
  <defs
     id="defs1" />
  <g
     id="g1"
     transform="translate(-756.55078,-490.94531)">
    <path
       id="circle53"
       style="font-variation-settings:normal;display:inline;vector-effect:none;fill:#ffd100;fill-opacity:1;stroke:none;stroke-width:1.45764;stroke-linecap:butt;stroke-linejoin:miter;stroke-miterlimit:4;stroke-dasharray:none;stroke-dashoffset:0;stroke-opacity:1;-inkscape-stroke:none;stop-color:#000000"
       d="m 805.0957,490.94531 a 48.544842,48.544842 0 0 0 -48.54492,48.54492 48.544842,48.544842 0 0 0 48.54492,48.54493 48.544842,48.544842 0 0 0 48.54492,-48.54493 48.544842,48.544842 0 0 0 -48.54492,-48.54492 z m 0,5.56836 a 42.977367,42.977367 0 0 1 22.72071,6.4961 l -0.15821,0.11328 -3.15039,3.36328 -2.07422,2.36328 -2.36328,0.71484 -2.07617,1.9336 -4.36523,7.80078 -3.9375,0.57226 -7.65821,2.07618 -5.43945,3.36523 -2.50586,2.64844 -0.78711,3.65039 -0.57226,7.01367 2.64843,5.94141 2.14649,5.22461 2.14844,7.66015 0.0703,4.08008 -1.14453,1.07227 -1.00196,2.07617 3.14844,2.14843 4.50977,0.85743 4.22265,-2.28907 2.57813,-1.79101 9.44726,0.21484 2.00391,-3.36328 4.86719,-2.64844 3.29297,0.57227 5.36914,-2.36133 7.91406,-0.44141 A 42.977367,42.977367 0 0 1 805.0957,582.4668 42.977367,42.977367 0 0 1 762.11719,539.49023 42.977367,42.977367 0 0 1 805.0957,496.51367 Z" />
  </g>
</svg>
